<svg
    xmlns="http://www.w3.org/2000/svg"
    width="64"
    height="64"
    fill="none"
    viewBox="0 0 24 24"
    stroke="currentColor"
    strokeWidth="2"
>
    <path fill="#B0C4DE" stroke="#B0C4DE" strokeLinecap="round" strokeLinejoin="round" d="M5 13a5 5 0 0110 0h1a4 4 0 010 8H5a4 4 0 010-8h1z" />
    <path fill="#B0C4DE" stroke="#B0C4DE" strokeLinecap="round" strokeLinejoin="round" d="M17 11a4 4 0 00-3.76 2.56 4.01 4.01 0 00-7.5 0A4 4 0 003 15a4 4 0 100 8h14a4 4 0 100-8h-1a4 4 0 001-7.94 5 5 0 00-5.24 4.92z" />
    <path fill="#1E90FF" stroke="#1E90FF" strokeLinecap="round" strokeLinejoin="round" d="M8 19c0 1.1-.9 2-2 2s-2-.9-2-2m7 0c0 1.1-.9 2-2 2s-2-.9-2-2m7 0c0 1.1-.9 2-2 2s-2-.9-2-2" />
</svg>
